<svg width="18" height="18" viewBox="0 0 18 18" fill="none" xmlns="http://www.w3.org/2000/svg">
<rect width="18" height="18" rx="9" fill="white"/>
<path d="M7.51139 1C11.457 1 14.6919 4.03665 14.9989 7.89612C14.9735 7.91514 15.1281 8.49756 14.5503 8.49756C14.5307 8.49756 14.5123 8.49731 14.4937 8.49645C14.4779 8.49782 14.462 8.49985 14.4453 8.49985H9.57811L10.066 13.7742C10.4949 13.9428 10.7985 14.3591 10.7985 14.8469C10.7985 15.4839 10.281 16 9.64285 16C9.0046 16 8.48714 15.4834 8.48714 14.8465C8.48714 14.7911 8.49131 14.7367 8.49883 14.6834L5.73729 12.8121L1.99222 13.5833C0.884888 12.1837 -4.75269e-07 10.1822 -4.75269e-07 8.49751C-5.12959e-05 4.35678 3.36295 1 7.51139 1ZM8.59651 9.00598L6.55027 12.1274L9.04134 13.8154L8.59651 9.00598ZM8.82459 6.88578C8.54188 6.88578 8.31273 7.11445 8.31273 7.39648C8.31273 7.67871 8.54193 7.90748 8.82459 7.90748C9.10741 7.90748 9.33661 7.67871 9.33661 7.39648C9.33661 7.11445 9.10746 6.88578 8.82459 6.88578ZM5.09517 12.1019C5.37794 12.1019 5.60709 11.8732 5.60709 11.591C5.60709 11.3089 5.37789 11.0801 5.09517 11.0801C4.81241 11.0801 4.58321 11.3089 4.58321 11.591C4.58321 11.8732 4.81236 12.1019 5.09517 12.1019ZM2.2915 7.21838C2.35015 7.24009 2.41027 7.25039 2.46937 7.25039C2.67748 7.25039 2.87309 7.12282 2.94963 6.91667C3.52395 5.36971 4.78247 4.16823 6.23421 3.7812C6.32295 3.75746 6.41493 3.73616 6.50809 3.7178C6.78557 3.66317 6.96613 3.39432 6.91135 3.11736C6.85662 2.84041 6.58716 2.65998 6.30978 2.71486C6.19422 2.73759 6.07972 2.76417 5.96944 2.79369C4.20241 3.26472 2.67713 4.70851 1.98927 6.56144C1.89093 6.82618 2.02627 7.12028 2.2915 7.21838Z" fill="#C8C8C8" fill-opacity="0.29"/>
<path d="M17 12.2308C17 12.088 16.9433 11.951 16.8423 11.85C16.7413 11.749 16.6043 11.6923 16.4615 11.6923H14.3077V9.53846C14.3077 9.39565 14.251 9.25869 14.15 9.15771C14.049 9.05673 13.912 9 13.7692 9H13.2308C13.088 9 12.951 9.05673 12.85 9.15771C12.749 9.25869 12.6923 9.39565 12.6923 9.53846V11.6923H10.5385C10.3957 11.6923 10.2587 11.749 10.1577 11.85C10.0567 11.951 10 12.088 10 12.2308V12.7692C10 12.912 10.0567 13.049 10.1577 13.15C10.2587 13.251 10.3957 13.3077 10.5385 13.3077H12.6923V15.4615C12.6923 15.6043 12.749 15.7413 12.85 15.8423C12.951 15.9433 13.088 16 13.2308 16H13.7692C13.912 16 14.049 15.9433 14.15 15.8423C14.251 15.7413 14.3077 15.6043 14.3077 15.4615V13.3077H16.4615C16.6043 13.3077 16.7413 13.251 16.8423 13.15C16.9433 13.049 17 12.912 17 12.7692V12.2308Z" fill="#C8C8C8" fill-opacity="0.29"/>
</svg>
