<svg width="35" height="35" viewBox="0 0 35 35" fill="none" xmlns="http://www.w3.org/2000/svg">
<g clip-path="url(#clip0_102_4472)">
<rect width="35" height="35" rx="17.5" fill="#BEBEBE" fill-opacity="0.34"/>
<path d="M13 24C11.9 24 11.01 24.9 11.01 26C11.01 27.1 11.9 28 13 28C14.1 28 15 27.1 15 26C15 24.9 14.1 24 13 24ZM7 8V10H9L12.6 17.59L11.25 20.04C11.09 20.32 11 20.65 11 21C11 22.1 11.9 23 13 23H25V21H13.42C13.28 21 13.17 20.89 13.17 20.75L13.2 20.63L14.1 19H21.55C22.3 19 22.96 18.59 23.3 17.97L26.88 11.48C26.96 11.34 27 11.17 27 11C27 10.45 26.55 10 26 10H11.21L10.27 8H7ZM23 24C21.9 24 21.01 24.9 21.01 26C21.01 27.1 21.9 28 23 28C24.1 28 25 27.1 25 26C25 24.9 24.1 24 23 24Z" stroke="black"/>
</g>
<defs>
<clipPath id="clip0_102_4472">
<rect width="35" height="35" rx="17.5" fill="white"/>
</clipPath>
</defs>
</svg>
