<svg width="25" height="25" viewBox="0 0 25 25" fill="none" xmlns="http://www.w3.org/2000/svg">
<g clip-path="url(#clip0_102_4472)">
<path d="M7.29169 18.75C6.14585 18.75 5.21877 19.6875 5.21877 20.8333C5.21877 21.9791 6.14585 22.9166 7.29169 22.9166C8.43752 22.9166 9.37502 21.9791 9.37502 20.8333C9.37502 19.6875 8.43752 18.75 7.29169 18.75ZM1.04169 2.08331V4.16665H3.12502L6.87502 12.0729L5.46877 14.625C5.3021 14.9166 5.20835 15.2604 5.20835 15.625C5.20835 16.7708 6.14585 17.7083 7.29169 17.7083H19.7917V15.625H7.72919C7.58335 15.625 7.46877 15.5104 7.46877 15.3646L7.50002 15.2396L8.43752 13.5416H16.1979C16.9792 13.5416 17.6667 13.1146 18.0209 12.4687L21.75 5.70831C21.8334 5.56248 21.875 5.3854 21.875 5.20831C21.875 4.6354 21.4063 4.16665 20.8334 4.16665H5.4271L4.44794 2.08331H1.04169ZM17.7084 18.75C16.5625 18.75 15.6354 19.6875 15.6354 20.8333C15.6354 21.9791 16.5625 22.9166 17.7084 22.9166C18.8542 22.9166 19.7917 21.9791 19.7917 20.8333C19.7917 19.6875 18.8542 18.75 17.7084 18.75Z" fill="#EEF1F4"/>
</g>
<defs>
<clipPath id="clip0_102_4472">
<rect width="25" height="25" fill="white"/>
</clipPath>
</defs>
</svg>
