<svg width="119" height="7" viewBox="0 0 119 7" fill="none" xmlns="http://www.w3.org/2000/svg">
<mask id="path-1-outside-1_0_83" maskUnits="userSpaceOnUse" x="0.532448" y="0" width="119" height="7" fill="black">
<rect fill="white" x="0.532448" width="119" height="7"/>
<path fill-rule="evenodd" clip-rule="evenodd" d="M55 3.91178C55 3.91185 55.0001 3.91191 55.0001 3.91191L55.8612 3.91191C55.9378 3.91191 56 3.97407 56 4.05074V4.05074C56 4.12742 56.0622 4.18958 56.1388 4.18958L57.1594 4.18958L116 4.18957C116.552 4.18957 117 3.74186 117 3.18957C117 2.63729 116.552 2.18957 116 2.18957L57.1594 2.18958L57.0014 2.18958C57.0006 2.18958 57 2.18893 57 2.18814V2.18814V2.18537V2.18045V2.17939V2.1735V2.17294V2.16769V2.1656V2.16197V2.15843V2.15632V2.15144V2.15076V2.14529V2.14461V2.1399V2.13796V2.1346V2.13148V2.12939V2.12516V2.12427V2.11923V2.11901V2.11429V2.11303V2.10944V2.10721V2.10468V2.10155V2.10002V2.09607V2.09545V2.09097V2.09074V2.08659V2.08557V2.08231V2.08057V2.07813V2.07573V2.07404V2.07104V2.07005V2.06652V2.06617V2.06238V2.06215V2.0587V2.05794V2.05512V2.05388V2.05164V2.04998V2.04827V2.04623V2.04501V2.04264V2.04185V2.0392V2.0388V2.03591V2.03585V2.03302V2.03277V2.0303V2.02978V2.02768V2.02694V2.02518V2.02424V2.02279V2.0217V2.02052V2.0193V2.01836V2.01704V2.01631V2.01493V2.01439V2.01297V2.01257V2.01114V2.01088V2.00946V2.00931V2.00792V2.00785V2.00652V2.00651V2.0053V2.00525V2.00421V2.00413V2.00325V2.00314V2.0024V2.00229V2.00168V2.00157V2.00109V2.00099V2.00063V2.00055V2.00029V2.00023V2.00008V2.00005V2.00005C57 2.00002 57 2 56.9999 2L56 2.00003L55.0001 2C55 2 55 2.00002 55 2.00005V2.00005V2.00008V2.00023V2.00029V2.00055V2.00063V2.00099V2.00109V2.00157V2.00168V2.00229V2.0024V2.00314V2.00325V2.00413V2.00421V2.00525V2.0053V2.00651V2.00652V2.00785V2.00792V2.00931V2.00946V2.01088V2.01114V2.01257V2.01297V2.01439V2.01493V2.01631V2.01704V2.01836V2.0193V2.02052V2.0217V2.02279V2.02424V2.02518V2.02694V2.02768V2.02978V2.0303V2.03277V2.03302V2.03585V2.03591V2.0388V2.0392V2.04185V2.04264V2.04501V2.04623V2.04827V2.04998V2.05164V2.05388V2.05512V2.05794V2.0587V2.06215V2.06238V2.06617V2.06652V2.07005V2.07104V2.07404V2.07573V2.07813V2.08057V2.08231V2.08557V2.08659V2.09074V2.09097V2.09545V2.09607V2.10002V2.10155V2.10468V2.10721V2.10944V2.11303V2.11429V2.11901V2.11923V2.12427V2.12516V2.12939V2.13148V2.1346V2.13796V2.1399V2.14461V2.14529V2.15076V2.15144V2.15632V2.15843V2.16197V2.1656V2.16769V2.17294V2.1735V2.17939V2.18045V2.18537V2.18814V2.19142V2.196V2.19755V2.20376V2.20404V2.21005V2.21225V2.21642V2.22064V2.22286V2.22921V2.22937V2.23596V2.23796V2.24263V2.24689V2.24936V2.25601V2.25617V2.26305V2.2653V2.26999V2.27478V2.27701V2.28409V2.28444V2.29124V2.29429V2.29846V2.30432V2.30574V2.31309V2.31454V2.3205V2.32494V2.32797V2.3355V2.33553V2.3431V2.34632V2.35075V2.35729V2.35846V2.36624V2.36846V2.37407V2.37981V2.38195V2.38989V2.39136V2.39789V2.4031V2.40594V2.41404V2.41504V2.42219V2.42717V2.4304V2.43866V2.4395V2.44696V2.45203V2.45532V2.46372V2.46475V2.47217V2.47767V2.48066V2.4892V2.49079V2.49778V2.50412V2.50641V2.51508V2.51764V2.52379V2.53137V2.53254V2.54133V2.5453V2.55016V2.55903V2.55943V2.56793V2.57377V2.57688V2.58585V2.58832V2.59486V2.60307V2.60391V2.61298V2.61803V2.62209V2.63123V2.6332V2.6404V2.64858V2.6496V2.65883V2.66416V2.66808V2.67737V2.67996V2.68667V2.69597V2.696V2.70536V2.7122V2.71474V2.72414V2.72864V2.73356V2.74301V2.74529V2.75247V2.76195V2.76216V2.77145V2.77924V2.78096V2.79049V2.79654V2.80004V2.8096V2.81406V2.81917V2.82876V2.8318V2.83836V2.84797V2.84976V2.85759V2.86721V2.86794V2.87685V2.88634V2.88649V2.89614V2.90497V2.9058V2.91546V2.92382V2.92512V2.93479V2.94289V2.94445V2.95412V2.96219V2.96379V2.97346V2.98171V2.98313V2.99279V3.00146V3.00245V3.01211V3.02144V3.02176V3.0314V3.04104V3.04165V3.05067V3.0603V3.06208V3.06991V3.07951V3.08275V3.0891V3.09868V3.10365V3.10825V3.1178V3.12478V3.12734V3.13686V3.14615V3.14636V3.15585V3.16532V3.16775V3.17477V3.1842V3.18958V3.19361V3.203V3.20594V3.21236V3.2217V3.22208V3.23102V3.23801V3.24031V3.24957V3.25373V3.25881V3.26802V3.26923V3.2772V3.28453V3.28636V3.29548V3.29962V3.30457V3.31362V3.3145V3.32265V3.32917V3.33164V3.34059V3.34364V3.34951V3.3579V3.35839V3.36724V3.37196V3.37604V3.38481V3.38581V3.39353V3.39946V3.40222V3.41086V3.41291V3.41946V3.42615V3.42802V3.43653V3.4392V3.445V3.45205V3.45342V3.46179V3.4647V3.47011V3.47715V3.47839V3.48661V3.4894V3.49479V3.50146V3.50291V3.51098V3.51332V3.519V3.52499V3.52696V3.53486V3.53646V3.54272V3.54775V3.55051V3.55825V3.55884V3.56592V3.56974V3.57354V3.58045V3.5811V3.58859V3.59097V3.59603V3.60131V3.6034V3.6107V3.61145V3.61794V3.62141V3.62512V3.63119V3.63223V3.63927V3.64078V3.64624V3.65019V3.65315V3.65941V3.65998V3.66674V3.66846V3.67343V3.67732V3.68005V3.686V3.6866V3.69307V3.6945V3.69946V3.70283V3.70578V3.71097V3.71202V3.71818V3.71894V3.72426V3.72674V3.73027V3.73436V3.73619V3.7418V3.74203V3.74779V3.74908V3.75347V3.75618V3.75906V3.76311V3.76456V3.76987V3.76998V3.77532V3.77646V3.78056V3.78288V3.78572V3.78913V3.79079V3.79522V3.79576V3.80065V3.80114V3.80544V3.80689V3.81014V3.81248V3.81475V3.81791V3.81926V3.82318V3.82368V3.828V3.82828V3.83222V3.83322V3.83634V3.838V3.84037V3.84263V3.84429V3.84709V3.84812V3.8514V3.85184V3.85546V3.85555V3.85897V3.85955V3.86238V3.86339V3.86569V3.86708V3.86889V3.87062V3.87198V3.874V3.87497V3.87723V3.87784V3.88032V3.88061V3.88326V3.88581V3.88603V3.88824V3.88867V3.89055V3.89116V3.89276V3.89351V3.89485V3.89571V3.89682V3.89776V3.89868V3.89967V3.90042V3.90144V3.90204V3.90307V3.90354V3.90456V3.90492V3.90591V3.90618V3.90712V3.90731V3.90819V3.90833V3.90913V3.90922V3.90993V3.90998V3.91059V3.91062V3.91114V3.91152V3.91178V3.91178ZM3.53245 2.13107C2.98016 2.13107 2.53245 2.57879 2.53245 3.13107C2.53245 3.68336 2.98016 4.13107 3.53245 4.13107H17.0293C17.5816 4.13107 18.0293 3.68336 18.0293 3.13107C18.0293 2.57879 17.5816 2.13107 17.0293 2.13107H3.53245Z"/>
</mask>
<path fill-rule="evenodd" clip-rule="evenodd" d="M55 3.91178C55 3.91185 55.0001 3.91191 55.0001 3.91191L55.8612 3.91191C55.9378 3.91191 56 3.97407 56 4.05074V4.05074C56 4.12742 56.0622 4.18958 56.1388 4.18958L57.1594 4.18958L116 4.18957C116.552 4.18957 117 3.74186 117 3.18957C117 2.63729 116.552 2.18957 116 2.18957L57.1594 2.18958L57.0014 2.18958C57.0006 2.18958 57 2.18893 57 2.18814V2.18814V2.18537V2.18045V2.17939V2.1735V2.17294V2.16769V2.1656V2.16197V2.15843V2.15632V2.15144V2.15076V2.14529V2.14461V2.1399V2.13796V2.1346V2.13148V2.12939V2.12516V2.12427V2.11923V2.11901V2.11429V2.11303V2.10944V2.10721V2.10468V2.10155V2.10002V2.09607V2.09545V2.09097V2.09074V2.08659V2.08557V2.08231V2.08057V2.07813V2.07573V2.07404V2.07104V2.07005V2.06652V2.06617V2.06238V2.06215V2.0587V2.05794V2.05512V2.05388V2.05164V2.04998V2.04827V2.04623V2.04501V2.04264V2.04185V2.0392V2.0388V2.03591V2.03585V2.03302V2.03277V2.0303V2.02978V2.02768V2.02694V2.02518V2.02424V2.02279V2.0217V2.02052V2.0193V2.01836V2.01704V2.01631V2.01493V2.01439V2.01297V2.01257V2.01114V2.01088V2.00946V2.00931V2.00792V2.00785V2.00652V2.00651V2.0053V2.00525V2.00421V2.00413V2.00325V2.00314V2.0024V2.00229V2.00168V2.00157V2.00109V2.00099V2.00063V2.00055V2.00029V2.00023V2.00008V2.00005V2.00005C57 2.00002 57 2 56.9999 2L56 2.00003L55.0001 2C55 2 55 2.00002 55 2.00005V2.00005V2.00008V2.00023V2.00029V2.00055V2.00063V2.00099V2.00109V2.00157V2.00168V2.00229V2.0024V2.00314V2.00325V2.00413V2.00421V2.00525V2.0053V2.00651V2.00652V2.00785V2.00792V2.00931V2.00946V2.01088V2.01114V2.01257V2.01297V2.01439V2.01493V2.01631V2.01704V2.01836V2.0193V2.02052V2.0217V2.02279V2.02424V2.02518V2.02694V2.02768V2.02978V2.0303V2.03277V2.03302V2.03585V2.03591V2.0388V2.0392V2.04185V2.04264V2.04501V2.04623V2.04827V2.04998V2.05164V2.05388V2.05512V2.05794V2.0587V2.06215V2.06238V2.06617V2.06652V2.07005V2.07104V2.07404V2.07573V2.07813V2.08057V2.08231V2.08557V2.08659V2.09074V2.09097V2.09545V2.09607V2.10002V2.10155V2.10468V2.10721V2.10944V2.11303V2.11429V2.11901V2.11923V2.12427V2.12516V2.12939V2.13148V2.1346V2.13796V2.1399V2.14461V2.14529V2.15076V2.15144V2.15632V2.15843V2.16197V2.1656V2.16769V2.17294V2.1735V2.17939V2.18045V2.18537V2.18814V2.19142V2.196V2.19755V2.20376V2.20404V2.21005V2.21225V2.21642V2.22064V2.22286V2.22921V2.22937V2.23596V2.23796V2.24263V2.24689V2.24936V2.25601V2.25617V2.26305V2.2653V2.26999V2.27478V2.27701V2.28409V2.28444V2.29124V2.29429V2.29846V2.30432V2.30574V2.31309V2.31454V2.3205V2.32494V2.32797V2.3355V2.33553V2.3431V2.34632V2.35075V2.35729V2.35846V2.36624V2.36846V2.37407V2.37981V2.38195V2.38989V2.39136V2.39789V2.4031V2.40594V2.41404V2.41504V2.42219V2.42717V2.4304V2.43866V2.4395V2.44696V2.45203V2.45532V2.46372V2.46475V2.47217V2.47767V2.48066V2.4892V2.49079V2.49778V2.50412V2.50641V2.51508V2.51764V2.52379V2.53137V2.53254V2.54133V2.5453V2.55016V2.55903V2.55943V2.56793V2.57377V2.57688V2.58585V2.58832V2.59486V2.60307V2.60391V2.61298V2.61803V2.62209V2.63123V2.6332V2.6404V2.64858V2.6496V2.65883V2.66416V2.66808V2.67737V2.67996V2.68667V2.69597V2.696V2.70536V2.7122V2.71474V2.72414V2.72864V2.73356V2.74301V2.74529V2.75247V2.76195V2.76216V2.77145V2.77924V2.78096V2.79049V2.79654V2.80004V2.8096V2.81406V2.81917V2.82876V2.8318V2.83836V2.84797V2.84976V2.85759V2.86721V2.86794V2.87685V2.88634V2.88649V2.89614V2.90497V2.9058V2.91546V2.92382V2.92512V2.93479V2.94289V2.94445V2.95412V2.96219V2.96379V2.97346V2.98171V2.98313V2.99279V3.00146V3.00245V3.01211V3.02144V3.02176V3.0314V3.04104V3.04165V3.05067V3.0603V3.06208V3.06991V3.07951V3.08275V3.0891V3.09868V3.10365V3.10825V3.1178V3.12478V3.12734V3.13686V3.14615V3.14636V3.15585V3.16532V3.16775V3.17477V3.1842V3.18958V3.19361V3.203V3.20594V3.21236V3.2217V3.22208V3.23102V3.23801V3.24031V3.24957V3.25373V3.25881V3.26802V3.26923V3.2772V3.28453V3.28636V3.29548V3.29962V3.30457V3.31362V3.3145V3.32265V3.32917V3.33164V3.34059V3.34364V3.34951V3.3579V3.35839V3.36724V3.37196V3.37604V3.38481V3.38581V3.39353V3.39946V3.40222V3.41086V3.41291V3.41946V3.42615V3.42802V3.43653V3.4392V3.445V3.45205V3.45342V3.46179V3.4647V3.47011V3.47715V3.47839V3.48661V3.4894V3.49479V3.50146V3.50291V3.51098V3.51332V3.519V3.52499V3.52696V3.53486V3.53646V3.54272V3.54775V3.55051V3.55825V3.55884V3.56592V3.56974V3.57354V3.58045V3.5811V3.58859V3.59097V3.59603V3.60131V3.6034V3.6107V3.61145V3.61794V3.62141V3.62512V3.63119V3.63223V3.63927V3.64078V3.64624V3.65019V3.65315V3.65941V3.65998V3.66674V3.66846V3.67343V3.67732V3.68005V3.686V3.6866V3.69307V3.6945V3.69946V3.70283V3.70578V3.71097V3.71202V3.71818V3.71894V3.72426V3.72674V3.73027V3.73436V3.73619V3.7418V3.74203V3.74779V3.74908V3.75347V3.75618V3.75906V3.76311V3.76456V3.76987V3.76998V3.77532V3.77646V3.78056V3.78288V3.78572V3.78913V3.79079V3.79522V3.79576V3.80065V3.80114V3.80544V3.80689V3.81014V3.81248V3.81475V3.81791V3.81926V3.82318V3.82368V3.828V3.82828V3.83222V3.83322V3.83634V3.838V3.84037V3.84263V3.84429V3.84709V3.84812V3.8514V3.85184V3.85546V3.85555V3.85897V3.85955V3.86238V3.86339V3.86569V3.86708V3.86889V3.87062V3.87198V3.874V3.87497V3.87723V3.87784V3.88032V3.88061V3.88326V3.88581V3.88603V3.88824V3.88867V3.89055V3.89116V3.89276V3.89351V3.89485V3.89571V3.89682V3.89776V3.89868V3.89967V3.90042V3.90144V3.90204V3.90307V3.90354V3.90456V3.90492V3.90591V3.90618V3.90712V3.90731V3.90819V3.90833V3.90913V3.90922V3.90993V3.90998V3.91059V3.91062V3.91114V3.91152V3.91178V3.91178ZM3.53245 2.13107C2.98016 2.13107 2.53245 2.57879 2.53245 3.13107C2.53245 3.68336 2.98016 4.13107 3.53245 4.13107H17.0293C17.5816 4.13107 18.0293 3.68336 18.0293 3.13107C18.0293 2.57879 17.5816 2.13107 17.0293 2.13107H3.53245Z" fill="black"/>
<path d="M57.1594 4.18958L57.1594 2.18958L57.1594 2.18958L57.1594 4.18958ZM116 4.18957L116 2.18957L116 2.18957L116 4.18957ZM116 2.18957L116 0.189573L116 2.18957ZM57.1594 2.18958L57.1594 0.189578L57.1594 0.189578L57.1594 2.18958ZM56 2.00003L55.9999 4.00003L56.0001 4.00003L56 2.00003ZM55.0001 2L55.0001 1.98033e-09L55.0001 2ZM57.0014 2.18958L57.0014 0.189578L57.0014 2.18958ZM56.9999 2L56.9999 1.98018e-09L56.9999 2ZM56.1388 4.18958L56.1388 2.18958L56.1388 4.18958ZM55.0001 3.91191L55.0001 5.91191L55.0001 3.91191ZM55.8612 1.91191L55.0001 1.91191L55.0001 5.91191L55.8612 5.91191L55.8612 1.91191ZM57.1594 2.18958L56.1388 2.18958L56.1388 6.18958L57.1594 6.18958L57.1594 2.18958ZM116 2.18957L57.1594 2.18958L57.1594 6.18958L116 6.18957L116 2.18957ZM115 3.18957C115 2.63728 115.448 2.18957 116 2.18957V6.18957C117.657 6.18957 119 4.84644 119 3.18957H115ZM116 4.18957C115.448 4.18957 115 3.74187 115 3.18957H119C119 1.53271 117.657 0.189573 116 0.189573L116 4.18957ZM57.1594 4.18958L116 4.18957L116 0.189573L57.1594 0.189578L57.1594 4.18958ZM57.0014 4.18958L57.1594 4.18958L57.1594 0.189578L57.0014 0.189578L57.0014 4.18958ZM55 2.18537V2.18814H59V2.18537H55ZM55 2.18045V2.18537H59V2.18045H55ZM55 2.17939V2.18045H59V2.17939H55ZM55 2.1735V2.17939H59V2.1735H55ZM55 2.17294V2.1735H59V2.17294H55ZM55 2.16769V2.17294H59V2.16769H55ZM55 2.1656V2.16769H59V2.1656H55ZM55 2.16197V2.1656H59V2.16197H55ZM55 2.15843V2.16197H59V2.15843H55ZM55 2.15632V2.15843H59V2.15632H55ZM55 2.15144V2.15632H59V2.15144H55ZM55 2.15076V2.15144H59V2.15076H55ZM55 2.14529V2.15076H59V2.14529H55ZM55 2.14461V2.14529H59V2.14461H55ZM55 2.1399V2.14461H59V2.1399H55ZM55 2.13796V2.1399H59V2.13796H55ZM55 2.1346V2.13796H59V2.1346H55ZM55 2.13148V2.1346H59V2.13148H55ZM55 2.12939V2.13148H59V2.12939H55ZM55 2.12516V2.12939H59V2.12516H55ZM55 2.12427V2.12516H59V2.12427H55ZM55 2.11923V2.12427H59V2.11923H55ZM55 2.11901V2.11923H59V2.11901H55ZM55 2.11429V2.11901H59V2.11429H55ZM55 2.11303V2.11429H59V2.11303H55ZM55 2.10944V2.11303H59V2.10944H55ZM55 2.10721V2.10944H59V2.10721H55ZM55 2.10468V2.10721H59V2.10468H55ZM55 2.10155V2.10468H59V2.10155H55ZM55 2.10002V2.10155H59V2.10002H55ZM55 2.09607V2.10002H59V2.09607H55ZM55 2.09545V2.09607H59V2.09545H55ZM55 2.09097V2.09545H59V2.09097H55ZM55 2.09074V2.09097H59V2.09074H55ZM55 2.08659V2.09074H59V2.08659H55ZM55 2.08557V2.08659H59V2.08557H55ZM55 2.08231V2.08557H59V2.08231H55ZM55 2.08057V2.08231H59V2.08057H55ZM55 2.07813V2.08057H59V2.07813H55ZM55 2.07573V2.07813H59V2.07573H55ZM55 2.07404V2.07573H59V2.07404H55ZM55 2.07104V2.07404H59V2.07104H55ZM55 2.07005V2.07104H59V2.07005H55ZM55 2.06652V2.07005H59V2.06652H55ZM55 2.06617V2.06652H59V2.06617H55ZM55 2.06238V2.06617H59V2.06238H55ZM55 2.06215V2.06238H59V2.06215H55ZM55 2.0587V2.06215H59V2.0587H55ZM55 2.05794V2.0587H59V2.05794H55ZM55 2.05512V2.05794H59V2.05512H55ZM55 2.05388V2.05512H59V2.05388H55ZM55 2.05164V2.05388H59V2.05164H55ZM55 2.04998V2.05164H59V2.04998H55ZM55 2.04827V2.04998H59V2.04827H55ZM55 2.04623V2.04827H59V2.04623H55ZM55 2.04501V2.04623H59V2.04501H55ZM55 2.04264V2.04501H59V2.04264H55ZM55 2.04185V2.04264H59V2.04185H55ZM55 2.0392V2.04185H59V2.0392H55ZM55 2.0388V2.0392H59V2.0388H55ZM55 2.03591V2.0388H59V2.03591H55ZM55 2.03585V2.03591H59V2.03585H55ZM55 2.03302V2.03585H59V2.03302H55ZM55 2.03277V2.03302H59V2.03277H55ZM55 2.0303V2.03277H59V2.0303H55ZM55 2.02978V2.0303H59V2.02978H55ZM55 2.02768V2.02978H59V2.02768H55ZM55 2.02694V2.02768H59V2.02694H55ZM55 2.02518V2.02694H59V2.02518H55ZM55 2.02424V2.02518H59V2.02424H55ZM55 2.02279V2.02424H59V2.02279H55ZM55 2.0217V2.02279H59V2.0217H55ZM55 2.02052V2.0217H59V2.02052H55ZM55 2.0193V2.02052H59V2.0193H55ZM55 2.01836V2.0193H59V2.01836H55ZM55 2.01704V2.01836H59V2.01704H55ZM55 2.01631V2.01704H59V2.01631H55ZM55 2.01493V2.01631H59V2.01493H55ZM55 2.01439V2.01493H59V2.01439H55ZM55 2.01297V2.01439H59V2.01297H55ZM55 2.01257V2.01297H59V2.01257H55ZM55 2.01114V2.01257H59V2.01114H55ZM55 2.01088V2.01114H59V2.01088H55ZM55 2.00946V2.01088H59V2.00946H55ZM55 2.00931V2.00946H59V2.00931H55ZM55 2.00792V2.00931H59V2.00792H55ZM55 2.00785V2.00792H59V2.00785H55ZM55 2.00652V2.00785H59V2.00652H55ZM55 2.00651V2.00652H59V2.00651H55ZM55 2.0053V2.00651H59V2.0053H55ZM55 2.00525V2.0053H59V2.00525H55ZM55 2.00421V2.00525H59V2.00421H55ZM55 2.00413V2.00421H59V2.00413H55ZM55 2.00325V2.00413H59V2.00325H55ZM55 2.00314V2.00325H59V2.00314H55ZM55 2.0024V2.00314H59V2.0024H55ZM55 2.00229V2.0024H59V2.00229H55ZM55 2.00168V2.00229H59V2.00168H55ZM55 2.00157V2.00168H59V2.00157H55ZM55 2.00109V2.00157H59V2.00109H55ZM55 2.00099V2.00109H59V2.00099H55ZM55 2.00063V2.00099H59V2.00063H55ZM55 2.00055V2.00063H59V2.00055H55ZM55 2.00029V2.00055H59V2.00029H55ZM55 2.00023V2.00029H59V2.00023H55ZM55 2.00008V2.00023H59V2.00008H55ZM55 2.00005V2.00008H59V2.00005H55ZM56.0001 4.00003L57 4L56.9999 1.98018e-09L55.9999 2.56933e-05L56.0001 4.00003ZM55 4L55.9999 4.00003L56.0001 2.56933e-05L55.0001 1.98033e-09L55 4ZM57 2.00008V2.00005H53V2.00008H57ZM57 2.00023V2.00008H53V2.00023H57ZM57 2.00029V2.00023H53V2.00029H57ZM57 2.00055V2.00029H53V2.00055H57ZM57 2.00063V2.00055H53V2.00063H57ZM57 2.00099V2.00063H53V2.00099H57ZM57 2.00109V2.00099H53V2.00109H57ZM57 2.00157V2.00109H53V2.00157H57ZM57 2.00168V2.00157H53V2.00168H57ZM57 2.00229V2.00168H53V2.00229H57ZM57 2.0024V2.00229H53V2.0024H57ZM57 2.00314V2.0024H53V2.00314H57ZM57 2.00325V2.00314H53V2.00325H57ZM57 2.00413V2.00325H53V2.00413H57ZM57 2.00421V2.00413H53V2.00421H57ZM57 2.00525V2.00421H53V2.00525H57ZM57 2.0053V2.00525H53V2.0053H57ZM57 2.00651V2.0053H53V2.00651H57ZM57 2.00652V2.00651H53V2.00652H57ZM57 2.00785V2.00652H53V2.00785H57ZM57 2.00792V2.00785H53V2.00792H57ZM57 2.00931V2.00792H53V2.00931H57ZM57 2.00946V2.00931H53V2.00946H57ZM57 2.01088V2.00946H53V2.01088H57ZM57 2.01114V2.01088H53V2.01114H57ZM57 2.01257V2.01114H53V2.01257H57ZM57 2.01297V2.01257H53V2.01297H57ZM57 2.01439V2.01297H53V2.01439H57ZM57 2.01493V2.01439H53V2.01493H57ZM57 2.01631V2.01493H53V2.01631H57ZM57 2.01704V2.01631H53V2.01704H57ZM57 2.01836V2.01704H53V2.01836H57ZM57 2.0193V2.01836H53V2.0193H57ZM57 2.02052V2.0193H53V2.02052H57ZM57 2.0217V2.02052H53V2.0217H57ZM57 2.02279V2.0217H53V2.02279H57ZM57 2.02424V2.02279H53V2.02424H57ZM57 2.02518V2.02424H53V2.02518H57ZM57 2.02694V2.02518H53V2.02694H57ZM57 2.02768V2.02694H53V2.02768H57ZM57 2.02978V2.02768H53V2.02978H57ZM57 2.0303V2.02978H53V2.0303H57ZM57 2.03277V2.0303H53V2.03277H57ZM57 2.03302V2.03277H53V2.03302H57ZM57 2.03585V2.03302H53V2.03585H57ZM57 2.03591V2.03585H53V2.03591H57ZM57 2.0388V2.03591H53V2.0388H57ZM57 2.0392V2.0388H53V2.0392H57ZM57 2.04185V2.0392H53V2.04185H57ZM57 2.04264V2.04185H53V2.04264H57ZM57 2.04501V2.04264H53V2.04501H57ZM57 2.04623V2.04501H53V2.04623H57ZM57 2.04827V2.04623H53V2.04827H57ZM57 2.04998V2.04827H53V2.04998H57ZM57 2.05164V2.04998H53V2.05164H57ZM57 2.05388V2.05164H53V2.05388H57ZM57 2.05512V2.05388H53V2.05512H57ZM57 2.05794V2.05512H53V2.05794H57ZM57 2.0587V2.05794H53V2.0587H57ZM57 2.06215V2.0587H53V2.06215H57ZM57 2.06238V2.06215H53V2.06238H57ZM57 2.06617V2.06238H53V2.06617H57ZM57 2.06652V2.06617H53V2.06652H57ZM57 2.07005V2.06652H53V2.07005H57ZM57 2.07104V2.07005H53V2.07104H57ZM57 2.07404V2.07104H53V2.07404H57ZM57 2.07573V2.07404H53V2.07573H57ZM57 2.07813V2.07573H53V2.07813H57ZM57 2.08057V2.07813H53V2.08057H57ZM57 2.08231V2.08057H53V2.08231H57ZM57 2.08557V2.08231H53V2.08557H57ZM57 2.08659V2.08557H53V2.08659H57ZM57 2.09074V2.08659H53V2.09074H57ZM57 2.09097V2.09074H53V2.09097H57ZM57 2.09545V2.09097H53V2.09545H57ZM57 2.09607V2.09545H53V2.09607H57ZM57 2.10002V2.09607H53V2.10002H57ZM57 2.10155V2.10002H53V2.10155H57ZM57 2.10468V2.10155H53V2.10468H57ZM57 2.10721V2.10468H53V2.10721H57ZM57 2.10944V2.10721H53V2.10944H57ZM57 2.11303V2.10944H53V2.11303H57ZM57 2.11429V2.11303H53V2.11429H57ZM57 2.11901V2.11429H53V2.11901H57ZM57 2.11923V2.11901H53V2.11923H57ZM57 2.12427V2.11923H53V2.12427H57ZM57 2.12516V2.12427H53V2.12516H57ZM57 2.12939V2.12516H53V2.12939H57ZM57 2.13148V2.12939H53V2.13148H57ZM57 2.1346V2.13148H53V2.1346H57ZM57 2.13796V2.1346H53V2.13796H57ZM57 2.1399V2.13796H53V2.1399H57ZM57 2.14461V2.1399H53V2.14461H57ZM57 2.14529V2.14461H53V2.14529H57ZM57 2.15076V2.14529H53V2.15076H57ZM57 2.15144V2.15076H53V2.15144H57ZM57 2.15632V2.15144H53V2.15632H57ZM57 2.15843V2.15632H53V2.15843H57ZM57 2.16197V2.15843H53V2.16197H57ZM57 2.1656V2.16197H53V2.1656H57ZM57 2.16769V2.1656H53V2.16769H57ZM57 2.17294V2.16769H53V2.17294H57ZM57 2.1735V2.17294H53V2.1735H57ZM57 2.17939V2.1735H53V2.17939H57ZM57 2.18045V2.17939H53V2.18045H57ZM57 2.18537V2.18045H53V2.18537H57ZM57 2.18814V2.18537H53V2.18814H57ZM57 2.19142V2.18814H53V2.19142H57ZM57 2.196V2.19142H53V2.196H57ZM57 2.19755V2.196H53V2.19755H57ZM57 2.20376V2.19755H53V2.20376H57ZM57 2.20404V2.20376H53V2.20404H57ZM57 2.21005V2.20404H53V2.21005H57ZM57 2.21225V2.21005H53V2.21225H57ZM57 2.21642V2.21225H53V2.21642H57ZM57 2.22064V2.21642H53V2.22064H57ZM57 2.22286V2.22064H53V2.22286H57ZM57 2.22921V2.22286H53V2.22921H57ZM57 2.22937V2.22921H53V2.22937H57ZM57 2.23596V2.22937H53V2.23596H57ZM57 2.23796V2.23596H53V2.23796H57ZM57 2.24263V2.23796H53V2.24263H57ZM57 2.24689V2.24263H53V2.24689H57ZM57 2.24936V2.24689H53V2.24936H57ZM57 2.25601V2.24936H53V2.25601H57ZM57 2.25617V2.25601H53V2.25617H57ZM57 2.26305V2.25617H53V2.26305H57ZM57 2.2653V2.26305H53V2.2653H57ZM57 2.26999V2.2653H53V2.26999H57ZM57 2.27478V2.26999H53V2.27478H57ZM57 2.27701V2.27478H53V2.27701H57ZM57 2.28409V2.27701H53V2.28409H57ZM57 2.28444V2.28409H53V2.28444H57ZM57 2.29124V2.28444H53V2.29124H57ZM57 2.29429V2.29124H53V2.29429H57ZM57 2.29846V2.29429H53V2.29846H57ZM57 2.30432V2.29846H53V2.30432H57ZM57 2.30574V2.30432H53V2.30574H57ZM57 2.31309V2.30574H53V2.31309H57ZM57 2.31454V2.31309H53V2.31454H57ZM57 2.3205V2.31454H53V2.3205H57ZM57 2.32494V2.3205H53V2.32494H57ZM57 2.32797V2.32494H53V2.32797H57ZM57 2.3355V2.32797H53V2.3355H57ZM57 2.33553V2.3355H53V2.33553H57ZM57 2.3431V2.33553H53V2.3431H57ZM57 2.34632V2.3431H53V2.34632H57ZM57 2.35075V2.34632H53V2.35075H57ZM57 2.35729V2.35075H53V2.35729H57ZM57 2.35846V2.35729H53V2.35846H57ZM57 2.36624V2.35846H53V2.36624H57ZM57 2.36846V2.36624H53V2.36846H57ZM57 2.37407V2.36846H53V2.37407H57ZM57 2.37981V2.37407H53V2.37981H57ZM57 2.38195V2.37981H53V2.38195H57ZM57 2.38989V2.38195H53V2.38989H57ZM57 2.39136V2.38989H53V2.39136H57ZM57 2.39789V2.39136H53V2.39789H57ZM57 2.4031V2.39789H53V2.4031H57ZM57 2.40594V2.4031H53V2.40594H57ZM57 2.41404V2.40594H53V2.41404H57ZM57 2.41504V2.41404H53V2.41504H57ZM57 2.42219V2.41504H53V2.42219H57ZM57 2.42717V2.42219H53V2.42717H57ZM57 2.4304V2.42717H53V2.4304H57ZM57 2.43866V2.4304H53V2.43866H57ZM57 2.4395V2.43866H53V2.4395H57ZM57 2.44696V2.4395H53V2.44696H57ZM57 2.45203V2.44696H53V2.45203H57ZM57 2.45532V2.45203H53V2.45532H57ZM57 2.46372V2.45532H53V2.46372H57ZM57 2.46475V2.46372H53V2.46475H57ZM57 2.47217V2.46475H53V2.47217H57ZM57 2.47767V2.47217H53V2.47767H57ZM57 2.48066V2.47767H53V2.48066H57ZM57 2.4892V2.48066H53V2.4892H57ZM57 2.49079V2.4892H53V2.49079H57ZM57 2.49778V2.49079H53V2.49778H57ZM57 2.50412V2.49778H53V2.50412H57ZM57 2.50641V2.50412H53V2.50641H57ZM57 2.51508V2.50641H53V2.51508H57ZM57 2.51764V2.51508H53V2.51764H57ZM57 2.52379V2.51764H53V2.52379H57ZM57 2.53137V2.52379H53V2.53137H57ZM57 2.53254V2.53137H53V2.53254H57ZM57 2.54133V2.53254H53V2.54133H57ZM57 2.5453V2.54133H53V2.5453H57ZM57 2.55016V2.5453H53V2.55016H57ZM57 2.55903V2.55016H53V2.55903H57ZM57 2.55943V2.55903H53V2.55943H57ZM57 2.56793V2.55943H53V2.56793H57ZM57 2.57377V2.56793H53V2.57377H57ZM57 2.57688V2.57377H53V2.57688H57ZM57 2.58585V2.57688H53V2.58585H57ZM57 2.58832V2.58585H53V2.58832H57ZM57 2.59486V2.58832H53V2.59486H57ZM57 2.60307V2.59486H53V2.60307H57ZM57 2.60391V2.60307H53V2.60391H57ZM57 2.61298V2.60391H53V2.61298H57ZM57 2.61803V2.61298H53V2.61803H57ZM57 2.62209V2.61803H53V2.62209H57ZM57 2.63123V2.62209H53V2.63123H57ZM57 2.6332V2.63123H53V2.6332H57ZM57 2.6404V2.6332H53V2.6404H57ZM57 2.64858V2.6404H53V2.64858H57ZM57 2.6496V2.64858H53V2.6496H57ZM57 2.65883V2.6496H53V2.65883H57ZM57 2.66416V2.65883H53V2.66416H57ZM57 2.66808V2.66416H53V2.66808H57ZM57 2.67737V2.66808H53V2.67737H57ZM57 2.67996V2.67737H53V2.67996H57ZM57 2.68667V2.67996H53V2.68667H57ZM57 2.69597V2.68667H53V2.69597H57ZM57 2.696V2.69597H53V2.696H57ZM57 2.70536V2.696H53V2.70536H57ZM57 2.7122V2.70536H53V2.7122H57ZM57 2.71474V2.7122H53V2.71474H57ZM57 2.72414V2.71474H53V2.72414H57ZM57 2.72864V2.72414H53V2.72864H57ZM57 2.73356V2.72864H53V2.73356H57ZM57 2.74301V2.73356H53V2.74301H57ZM57 2.74529V2.74301H53V2.74529H57ZM57 2.75247V2.74529H53V2.75247H57ZM57 2.76195V2.75247H53V2.76195H57ZM57 2.76216V2.76195H53V2.76216H57ZM57 2.77145V2.76216H53V2.77145H57ZM57 2.77924V2.77145H53V2.77924H57ZM57 2.78096V2.77924H53V2.78096H57ZM57 2.79049V2.78096H53V2.79049H57ZM57 2.79654V2.79049H53V2.79654H57ZM57 2.80004V2.79654H53V2.80004H57ZM57 2.8096V2.80004H53V2.8096H57ZM57 2.81406V2.8096H53V2.81406H57ZM57 2.81917V2.81406H53V2.81917H57ZM57 2.82876V2.81917H53V2.82876H57ZM57 2.8318V2.82876H53V2.8318H57ZM57 2.83836V2.8318H53V2.83836H57ZM57 2.84797V2.83836H53V2.84797H57ZM57 2.84976V2.84797H53V2.84976H57ZM57 2.85759V2.84976H53V2.85759H57ZM57 2.86721V2.85759H53V2.86721H57ZM57 2.86794V2.86721H53V2.86794H57ZM57 2.87685V2.86794H53V2.87685H57ZM57 2.88634V2.87685H53V2.88634H57ZM57 2.88649V2.88634H53V2.88649H57ZM57 2.89614V2.88649H53V2.89614H57ZM57 2.90497V2.89614H53V2.90497H57ZM57 2.9058V2.90497H53V2.9058H57ZM57 2.91546V2.9058H53V2.91546H57ZM57 2.92382V2.91546H53V2.92382H57ZM57 2.92512V2.92382H53V2.92512H57ZM57 2.93479V2.92512H53V2.93479H57ZM57 2.94289V2.93479H53V2.94289H57ZM57 2.94445V2.94289H53V2.94445H57ZM57 2.95412V2.94445H53V2.95412H57ZM57 2.96219V2.95412H53V2.96219H57ZM57 2.96379V2.96219H53V2.96379H57ZM57 2.97346V2.96379H53V2.97346H57ZM57 2.98171V2.97346H53V2.98171H57ZM57 2.98313V2.98171H53V2.98313H57ZM57 2.99279V2.98313H53V2.99279H57ZM57 3.00146V2.99279H53V3.00146H57ZM57 3.00245V3.00146H53V3.00245H57ZM57 3.01211V3.00245H53V3.01211H57ZM57 3.02144V3.01211H53V3.02144H57ZM57 3.02176V3.02144H53V3.02176H57ZM57 3.0314V3.02176H53V3.0314H57ZM57 3.04104V3.0314H53V3.04104H57ZM57 3.04165V3.04104H53V3.04165H57ZM57 3.05067V3.04165H53V3.05067H57ZM57 3.0603V3.05067H53V3.0603H57ZM57 3.06208V3.0603H53V3.06208H57ZM57 3.06991V3.06208H53V3.06991H57ZM57 3.07951V3.06991H53V3.07951H57ZM57 3.08275V3.07951H53V3.08275H57ZM57 3.0891V3.08275H53V3.0891H57ZM57 3.09868V3.0891H53V3.09868H57ZM57 3.10365V3.09868H53V3.10365H57ZM57 3.10825V3.10365H53V3.10825H57ZM57 3.1178V3.10825H53V3.1178H57ZM57 3.12478V3.1178H53V3.12478H57ZM57 3.12734V3.12478H53V3.12734H57ZM57 3.13686V3.12734H53V3.13686H57ZM57 3.14615V3.13686H53V3.14615H57ZM57 3.14636V3.14615H53V3.14636H57ZM57 3.15585V3.14636H53V3.15585H57ZM57 3.16532V3.15585H53V3.16532H57ZM57 3.16775V3.16532H53V3.16775H57ZM57 3.17477V3.16775H53V3.17477H57ZM57 3.1842V3.17477H53V3.1842H57ZM57 3.18958V3.1842H53V3.18958H57ZM57 3.19361V3.18958H53V3.19361H57ZM57 3.203V3.19361H53V3.203H57ZM57 3.20594V3.203H53V3.20594H57ZM57 3.21236V3.20594H53V3.21236H57ZM57 3.2217V3.21236H53V3.2217H57ZM57 3.22208V3.2217H53V3.22208H57ZM57 3.23102V3.22208H53V3.23102H57ZM57 3.23801V3.23102H53V3.23801H57ZM57 3.24031V3.23801H53V3.24031H57ZM57 3.24957V3.24031H53V3.24957H57ZM57 3.25373V3.24957H53V3.25373H57ZM57 3.25881V3.25373H53V3.25881H57ZM57 3.26802V3.25881H53V3.26802H57ZM57 3.26923V3.26802H53V3.26923H57ZM57 3.2772V3.26923H53V3.2772H57ZM57 3.28453V3.2772H53V3.28453H57ZM57 3.28636V3.28453H53V3.28636H57ZM57 3.29548V3.28636H53V3.29548H57ZM57 3.29962V3.29548H53V3.29962H57ZM57 3.30457V3.29962H53V3.30457H57ZM57 3.31362V3.30457H53V3.31362H57ZM57 3.3145V3.31362H53V3.3145H57ZM57 3.32265V3.3145H53V3.32265H57ZM57 3.32917V3.32265H53V3.32917H57ZM57 3.33164V3.32917H53V3.33164H57ZM57 3.34059V3.33164H53V3.34059H57ZM57 3.34364V3.34059H53V3.34364H57ZM57 3.34951V3.34364H53V3.34951H57ZM57 3.3579V3.34951H53V3.3579H57ZM57 3.35839V3.3579H53V3.35839H57ZM57 3.36724V3.35839H53V3.36724H57ZM57 3.37196V3.36724H53V3.37196H57ZM57 3.37604V3.37196H53V3.37604H57ZM57 3.38481V3.37604H53V3.38481H57ZM57 3.38581V3.38481H53V3.38581H57ZM57 3.39353V3.38581H53V3.39353H57ZM57 3.39946V3.39353H53V3.39946H57ZM57 3.40222V3.39946H53V3.40222H57ZM57 3.41086V3.40222H53V3.41086H57ZM57 3.41291V3.41086H53V3.41291H57ZM57 3.41946V3.41291H53V3.41946H57ZM57 3.42615V3.41946H53V3.42615H57ZM57 3.42802V3.42615H53V3.42802H57ZM57 3.43653V3.42802H53V3.43653H57ZM57 3.4392V3.43653H53V3.4392H57ZM57 3.445V3.4392H53V3.445H57ZM57 3.45205V3.445H53V3.45205H57ZM57 3.45342V3.45205H53V3.45342H57ZM57 3.46179V3.45342H53V3.46179H57ZM57 3.4647V3.46179H53V3.4647H57ZM57 3.47011V3.4647H53V3.47011H57ZM57 3.47715V3.47011H53V3.47715H57ZM57 3.47839V3.47715H53V3.47839H57ZM57 3.48661V3.47839H53V3.48661H57ZM57 3.4894V3.48661H53V3.4894H57ZM57 3.49479V3.4894H53V3.49479H57ZM57 3.50146V3.49479H53V3.50146H57ZM57 3.50291V3.50146H53V3.50291H57ZM57 3.51098V3.50291H53V3.51098H57ZM57 3.51332V3.51098H53V3.51332H57ZM57 3.519V3.51332H53V3.519H57ZM57 3.52499V3.519H53V3.52499H57ZM57 3.52696V3.52499H53V3.52696H57ZM57 3.53486V3.52696H53V3.53486H57ZM57 3.53646V3.53486H53V3.53646H57ZM57 3.54272V3.53646H53V3.54272H57ZM57 3.54775V3.54272H53V3.54775H57ZM57 3.55051V3.54775H53V3.55051H57ZM57 3.55825V3.55051H53V3.55825H57ZM57 3.55884V3.55825H53V3.55884H57ZM57 3.56592V3.55884H53V3.56592H57ZM57 3.56974V3.56592H53V3.56974H57ZM57 3.57354V3.56974H53V3.57354H57ZM57 3.58045V3.57354H53V3.58045H57ZM57 3.5811V3.58045H53V3.5811H57ZM57 3.58859V3.5811H53V3.58859H57ZM57 3.59097V3.58859H53V3.59097H57ZM57 3.59603V3.59097H53V3.59603H57ZM57 3.60131V3.59603H53V3.60131H57ZM57 3.6034V3.60131H53V3.6034H57ZM57 3.6107V3.6034H53V3.6107H57ZM57 3.61145V3.6107H53V3.61145H57ZM57 3.61794V3.61145H53V3.61794H57ZM57 3.62141V3.61794H53V3.62141H57ZM57 3.62512V3.62141H53V3.62512H57ZM57 3.63119V3.62512H53V3.63119H57ZM57 3.63223V3.63119H53V3.63223H57ZM57 3.63927V3.63223H53V3.63927H57ZM57 3.64078V3.63927H53V3.64078H57ZM57 3.64624V3.64078H53V3.64624H57ZM57 3.65019V3.64624H53V3.65019H57ZM57 3.65315V3.65019H53V3.65315H57ZM57 3.65941V3.65315H53V3.65941H57ZM57 3.65998V3.65941H53V3.65998H57ZM57 3.66674V3.65998H53V3.66674H57ZM57 3.66846V3.66674H53V3.66846H57ZM57 3.67343V3.66846H53V3.67343H57ZM57 3.67732V3.67343H53V3.67732H57ZM57 3.68005V3.67732H53V3.68005H57ZM57 3.686V3.68005H53V3.686H57ZM57 3.6866V3.686H53V3.6866H57ZM57 3.69307V3.6866H53V3.69307H57ZM57 3.6945V3.69307H53V3.6945H57ZM57 3.69946V3.6945H53V3.69946H57ZM57 3.70283V3.69946H53V3.70283H57ZM57 3.70578V3.70283H53V3.70578H57ZM57 3.71097V3.70578H53V3.71097H57ZM57 3.71202V3.71097H53V3.71202H57ZM57 3.71818V3.71202H53V3.71818H57ZM57 3.71894V3.71818H53V3.71894H57ZM57 3.72426V3.71894H53V3.72426H57ZM57 3.72674V3.72426H53V3.72674H57ZM57 3.73027V3.72674H53V3.73027H57ZM57 3.73436V3.73027H53V3.73436H57ZM57 3.73619V3.73436H53V3.73619H57ZM57 3.7418V3.73619H53V3.7418H57ZM57 3.74203V3.7418H53V3.74203H57ZM57 3.74779V3.74203H53V3.74779H57ZM57 3.74908V3.74779H53V3.74908H57ZM57 3.75347V3.74908H53V3.75347H57ZM57 3.75618V3.75347H53V3.75618H57ZM57 3.75906V3.75618H53V3.75906H57ZM57 3.76311V3.75906H53V3.76311H57ZM57 3.76456V3.76311H53V3.76456H57ZM57 3.76987V3.76456H53V3.76987H57ZM57 3.76998V3.76987H53V3.76998H57ZM57 3.77532V3.76998H53V3.77532H57ZM57 3.77646V3.77532H53V3.77646H57ZM57 3.78056V3.77646H53V3.78056H57ZM57 3.78288V3.78056H53V3.78288H57ZM57 3.78572V3.78288H53V3.78572H57ZM57 3.78913V3.78572H53V3.78913H57ZM57 3.79079V3.78913H53V3.79079H57ZM57 3.79522V3.79079H53V3.79522H57ZM57 3.79576V3.79522H53V3.79576H57ZM57 3.80065V3.79576H53V3.80065H57ZM57 3.80114V3.80065H53V3.80114H57ZM57 3.80544V3.80114H53V3.80544H57ZM57 3.80689V3.80544H53V3.80689H57ZM57 3.81014V3.80689H53V3.81014H57ZM57 3.81248V3.81014H53V3.81248H57ZM57 3.81475V3.81248H53V3.81475H57ZM57 3.81791V3.81475H53V3.81791H57ZM57 3.81926V3.81791H53V3.81926H57ZM57 3.82318V3.81926H53V3.82318H57ZM57 3.82368V3.82318H53V3.82368H57ZM57 3.828V3.82368H53V3.828H57ZM57 3.82828V3.828H53V3.82828H57ZM57 3.83222V3.82828H53V3.83222H57ZM57 3.83322V3.83222H53V3.83322H57ZM57 3.83634V3.83322H53V3.83634H57ZM57 3.838V3.83634H53V3.838H57ZM57 3.84037V3.838H53V3.84037H57ZM57 3.84263V3.84037H53V3.84263H57ZM57 3.84429V3.84263H53V3.84429H57ZM57 3.84709V3.84429H53V3.84709H57ZM57 3.84812V3.84709H53V3.84812H57ZM57 3.8514V3.84812H53V3.8514H57ZM57 3.85184V3.8514H53V3.85184H57ZM57 3.85546V3.85184H53V3.85546H57ZM57 3.85555V3.85546H53V3.85555H57ZM57 3.85897V3.85555H53V3.85897H57ZM57 3.85955V3.85897H53V3.85955H57ZM57 3.86238V3.85955H53V3.86238H57ZM57 3.86339V3.86238H53V3.86339H57ZM57 3.86569V3.86339H53V3.86569H57ZM57 3.86708V3.86569H53V3.86708H57ZM57 3.86889V3.86708H53V3.86889H57ZM57 3.87062V3.86889H53V3.87062H57ZM57 3.87198V3.87062H53V3.87198H57ZM57 3.874V3.87198H53V3.874H57ZM57 3.87497V3.874H53V3.87497H57ZM57 3.87723V3.87497H53V3.87723H57ZM57 3.87784V3.87723H53V3.87784H57ZM57 3.88032V3.87784H53V3.88032H57ZM57 3.88061V3.88032H53V3.88061H57ZM57 3.88326V3.88061H53V3.88326H57ZM57 3.88581V3.88326H53V3.88581H57ZM57 3.88603V3.88581H53V3.88603H57ZM57 3.88824V3.88603H53V3.88824H57ZM57 3.88867V3.88824H53V3.88867H57ZM57 3.89055V3.88867H53V3.89055H57ZM57 3.89116V3.89055H53V3.89116H57ZM57 3.89276V3.89116H53V3.89276H57ZM57 3.89351V3.89276H53V3.89351H57ZM57 3.89485V3.89351H53V3.89485H57ZM57 3.89571V3.89485H53V3.89571H57ZM57 3.89682V3.89571H53V3.89682H57ZM57 3.89776V3.89682H53V3.89776H57ZM57 3.89868V3.89776H53V3.89868H57ZM57 3.89967V3.89868H53V3.89967H57ZM57 3.90042V3.89967H53V3.90042H57ZM57 3.90144V3.90042H53V3.90144H57ZM57 3.90204V3.90144H53V3.90204H57ZM57 3.90307V3.90204H53V3.90307H57ZM57 3.90354V3.90307H53V3.90354H57ZM57 3.90456V3.90354H53V3.90456H57ZM57 3.90492V3.90456H53V3.90492H57ZM57 3.90591V3.90492H53V3.90591H57ZM57 3.90618V3.90591H53V3.90618H57ZM57 3.90712V3.90618H53V3.90712H57ZM57 3.90731V3.90712H53V3.90731H57ZM57 3.90819V3.90731H53V3.90819H57ZM57 3.90833V3.90819H53V3.90833H57ZM57 3.90913V3.90833H53V3.90913H57ZM57 3.90922V3.90913H53V3.90922H57ZM57 3.90993V3.90922H53V3.90993H57ZM57 3.90998V3.90993H53V3.90998H57ZM57 3.91059V3.90998H53V3.91059H57ZM57 3.91062V3.91059H53V3.91062H57ZM57 3.91114V3.91062H53V3.91114H57ZM57 3.91152V3.91114H53V3.91152H57ZM57 3.91178V3.91152H53V3.91178H57ZM4.53245 3.13107C4.53245 3.68336 4.08473 4.13107 3.53245 4.13107V0.131073C1.87559 0.131073 0.532448 1.47422 0.532448 3.13107H4.53245ZM3.53245 2.13107C4.08473 2.13107 4.53245 2.57879 4.53245 3.13107H0.532448C0.532448 4.78793 1.87559 6.13107 3.53245 6.13107V2.13107ZM17.0293 2.13107H3.53245V6.13107H17.0293V2.13107ZM16.0293 3.13107C16.0293 2.57879 16.477 2.13107 17.0293 2.13107V6.13107C18.6861 6.13107 20.0293 4.78793 20.0293 3.13107H16.0293ZM17.0293 4.13107C16.477 4.13107 16.0293 3.68336 16.0293 3.13107H20.0293C20.0293 1.47422 18.6861 0.131073 17.0293 0.131073V4.13107ZM3.53245 4.13107H17.0293V0.131073H3.53245V4.13107ZM55.0001 1.98033e-09C53.8955 -2.83785e-05 53 0.895433 53 2.00005H57C57 3.10461 56.1046 4.00003 55 4L55.0001 1.98033e-09ZM57.0014 0.189578C58.1052 0.189577 59 1.08436 59 2.18814H55C55 3.2935 55.8961 4.18958 57.0014 4.18958L57.0014 0.189578ZM59 2.00005C59 0.895739 58.1048 -2.83864e-05 56.9999 1.98018e-09L57 4C55.8951 4.00003 55 3.10431 55 2.00005H59ZM54 4.05074C54 5.23199 54.9576 6.18958 56.1388 6.18958L56.1388 2.18958C57.1667 2.18958 58 3.02285 58 4.05074H54ZM55.0001 1.91191C56.1046 1.91191 57 2.80728 57 3.91178H53C53 5.01642 53.8955 5.91191 55.0001 5.91191L55.0001 1.91191ZM55.8612 5.91191C54.8333 5.91191 54 5.07864 54 4.05074H58C58 2.8695 57.0424 1.91191 55.8612 1.91191L55.8612 5.91191Z" fill="black" mask="url(#path-1-outside-1_0_83)"/>
</svg>
