<svg width="126" height="80" viewBox="0 0 126 80" fill="none" xmlns="http://www.w3.org/2000/svg">
<mask id="path-1-outside-1_0_83" maskUnits="userSpaceOnUse" x="-0.246002" y="-0.060318" width="127" height="81" fill="black">
<rect fill="white" x="-0.246002" y="-0.060318" width="127" height="81"/>
<path fill-rule="evenodd" clip-rule="evenodd" d="M25.166 4.56004C25.3758 4.04916 25.96 3.8051 26.4709 4.01492L28.9877 5.04856H32.8394H39.5878C40.1401 5.04856 40.5878 5.49628 40.5878 6.04856C40.5878 6.60085 40.1401 7.04856 39.5878 7.04856H34.4039L45.5199 31.0765L46.402 30.4678C46.5152 30.3897 46.648 30.3361 46.7916 30.3105L99.3978 20.9545L91.3522 6.53583C91.1796 6.2264 91.1836 5.84871 91.3627 5.54299C91.5418 5.23727 91.8694 5.04918 92.2237 5.04856L116.924 5.00533C120.114 4.99975 122.919 7.15273 122.919 10.5736C122.919 13.7733 120.339 16.9741 116.934 16.9741H111.121C110.569 16.9741 110.121 16.5264 110.121 15.9741C110.121 15.4219 110.569 14.9741 111.121 14.9741H116.934C119.035 14.9741 120.919 12.8796 120.919 10.5736C120.919 8.4821 119.249 7.00127 116.927 7.00533L93.927 7.04558L101.481 20.584L105.206 19.9216C106.192 19.7462 106.967 20.8498 106.323 21.5137L103.579 24.3436L122.792 58.7749C123.061 59.2571 122.888 59.8663 122.406 60.1354C121.924 60.4045 121.314 60.2317 121.045 59.7494L102.126 25.8429L68.3916 60.6357C67.7415 60.2893 67.0432 59.9987 66.3068 59.7724L101.058 23.9302L100.396 22.7434L47.6057 32.1321L46.3949 32.9678L58.8098 59.8033C59.9703 59.4533 61.2242 59.2621 62.5325 59.2621C68.0841 59.2621 72.6572 62.7037 73.2621 67.1311H76.0293C76.5816 67.1311 77.0293 67.5788 77.0293 68.1311C77.0293 68.6833 76.5816 69.1311 76.0293 69.1311H73.2621C72.6572 73.5585 68.0841 77 62.5325 77C56.5692 77 51.735 73.0292 51.735 68.1311C51.735 64.9121 53.8228 62.0937 56.9468 60.5395L44.7245 34.1206L8.46557 59.1446L52.3852 65.0211C52.1262 65.5998 51.9385 66.2068 51.831 66.8349L5.75222 60.6695C4.80762 60.5432 4.4033 59.4531 5.11804 58.9598L43.8496 32.2293L32.2002 7.04856H28.7904C28.66 7.04856 28.531 7.02309 28.4105 6.97359L25.7111 5.86497C25.2002 5.65516 24.9561 5.07092 25.166 4.56004ZM71.231 67.1311H62.5325C61.9802 67.1311 61.5325 67.5788 61.5325 68.1311C61.5325 68.6833 61.9802 69.1311 62.5325 69.1311H71.231C70.6237 72.2078 67.2677 75 62.5325 75C57.2877 75 53.735 71.5746 53.735 68.1311C53.735 65.8762 55.2584 63.629 57.7827 62.3464L57.9957 62.8068L59.8109 61.9671L59.6557 61.6317C60.5402 61.3939 61.5038 61.2621 62.5325 61.2621C67.2677 61.2621 70.6236 64.0543 71.231 67.1311ZM102.512 22.4309L102.48 22.3728L102.587 22.3538L102.512 22.4309Z"/>
</mask>
<path fill-rule="evenodd" clip-rule="evenodd" d="M25.166 4.56004C25.3758 4.04916 25.96 3.8051 26.4709 4.01492L28.9877 5.04856H32.8394H39.5878C40.1401 5.04856 40.5878 5.49628 40.5878 6.04856C40.5878 6.60085 40.1401 7.04856 39.5878 7.04856H34.4039L45.5199 31.0765L46.402 30.4678C46.5152 30.3897 46.648 30.3361 46.7916 30.3105L99.3978 20.9545L91.3522 6.53583C91.1796 6.2264 91.1836 5.84871 91.3627 5.54299C91.5418 5.23727 91.8694 5.04918 92.2237 5.04856L116.924 5.00533C120.114 4.99975 122.919 7.15273 122.919 10.5736C122.919 13.7733 120.339 16.9741 116.934 16.9741H111.121C110.569 16.9741 110.121 16.5264 110.121 15.9741C110.121 15.4219 110.569 14.9741 111.121 14.9741H116.934C119.035 14.9741 120.919 12.8796 120.919 10.5736C120.919 8.4821 119.249 7.00127 116.927 7.00533L93.927 7.04558L101.481 20.584L105.206 19.9216C106.192 19.7462 106.967 20.8498 106.323 21.5137L103.579 24.3436L122.792 58.7749C123.061 59.2571 122.888 59.8663 122.406 60.1354C121.924 60.4045 121.314 60.2317 121.045 59.7494L102.126 25.8429L68.3916 60.6357C67.7415 60.2893 67.0432 59.9987 66.3068 59.7724L101.058 23.9302L100.396 22.7434L47.6057 32.1321L46.3949 32.9678L58.8098 59.8033C59.9703 59.4533 61.2242 59.2621 62.5325 59.2621C68.0841 59.2621 72.6572 62.7037 73.2621 67.1311H76.0293C76.5816 67.1311 77.0293 67.5788 77.0293 68.1311C77.0293 68.6833 76.5816 69.1311 76.0293 69.1311H73.2621C72.6572 73.5585 68.0841 77 62.5325 77C56.5692 77 51.735 73.0292 51.735 68.1311C51.735 64.9121 53.8228 62.0937 56.9468 60.5395L44.7245 34.1206L8.46557 59.1446L52.3852 65.0211C52.1262 65.5998 51.9385 66.2068 51.831 66.8349L5.75222 60.6695C4.80762 60.5432 4.4033 59.4531 5.11804 58.9598L43.8496 32.2293L32.2002 7.04856H28.7904C28.66 7.04856 28.531 7.02309 28.4105 6.97359L25.7111 5.86497C25.2002 5.65516 24.9561 5.07092 25.166 4.56004ZM71.231 67.1311H62.5325C61.9802 67.1311 61.5325 67.5788 61.5325 68.1311C61.5325 68.6833 61.9802 69.1311 62.5325 69.1311H71.231C70.6237 72.2078 67.2677 75 62.5325 75C57.2877 75 53.735 71.5746 53.735 68.1311C53.735 65.8762 55.2584 63.629 57.7827 62.3464L57.9957 62.8068L59.8109 61.9671L59.6557 61.6317C60.5402 61.3939 61.5038 61.2621 62.5325 61.2621C67.2677 61.2621 70.6236 64.0543 71.231 67.1311ZM102.512 22.4309L102.48 22.3728L102.587 22.3538L102.512 22.4309Z" fill="black"/>
<path d="M26.4709 4.01492L25.3312 6.79L25.3312 6.79L26.4709 4.01492ZM25.166 4.56004L27.941 5.69976L27.941 5.69975L25.166 4.56004ZM28.9877 5.04856L27.848 7.82364L28.3957 8.04856H28.9877V5.04856ZM34.4039 7.04856V4.04856H29.7105L31.6811 8.30819L34.4039 7.04856ZM45.5199 31.0765L42.7972 32.3362L44.2926 35.5686L47.224 33.5456L45.5199 31.0765ZM46.402 30.4678L48.106 32.9369L48.106 32.9369L46.402 30.4678ZM46.7916 30.3105L47.3169 33.2642L47.3169 33.2642L46.7916 30.3105ZM99.3978 20.9545L99.9231 23.9082L104.07 23.1707L102.018 19.4927L99.3978 20.9545ZM91.3522 6.53583L93.972 5.07402L93.972 5.07401L91.3522 6.53583ZM92.2237 5.04856L92.229 8.04856L92.229 8.04856L92.2237 5.04856ZM116.924 5.00533L116.929 8.00533L116.929 8.00533L116.924 5.00533ZM116.927 7.00533L116.932 10.0053L116.932 10.0053L116.927 7.00533ZM93.927 7.04558L93.9217 4.04559L88.8225 4.05451L91.3072 8.5074L93.927 7.04558ZM101.481 20.584L98.8616 22.0458L99.9028 23.9118L102.007 23.5376L101.481 20.584ZM105.206 19.9216L104.681 16.9679L104.681 16.9679L105.206 19.9216ZM106.323 21.5137L104.169 19.4254L104.169 19.4254L106.323 21.5137ZM103.579 24.3436L101.425 22.2553L99.8723 23.8571L100.959 25.8054L103.579 24.3436ZM122.792 58.7749L120.172 60.2367L120.172 60.2367L122.792 58.7749ZM122.406 60.1354L123.868 62.7551L123.868 62.7551L122.406 60.1354ZM121.045 59.7494L123.665 58.2876L123.665 58.2876L121.045 59.7494ZM102.126 25.8429L104.745 24.3811L102.78 20.8585L99.9717 23.7546L102.126 25.8429ZM68.3916 60.6357L66.9807 63.2832L68.9735 64.3452L70.5454 62.724L68.3916 60.6357ZM66.3068 59.7724L64.153 57.6841L60.7434 61.2007L65.4253 62.6399L66.3068 59.7724ZM101.058 23.9302L103.212 26.0185L104.765 24.4167L103.678 22.4684L101.058 23.9302ZM100.396 22.7434L103.016 21.2816L101.975 19.4156L99.8707 19.7897L100.396 22.7434ZM47.6057 32.1321L47.0804 29.1785L46.4384 29.2926L45.9017 29.663L47.6057 32.1321ZM46.3949 32.9678L44.6909 30.4987L42.6112 31.934L43.6721 34.2274L46.3949 32.9678ZM58.8098 59.8033L56.0871 61.063L57.1813 63.4282L59.6763 62.6755L58.8098 59.8033ZM73.2621 67.1311L70.2897 67.5371L70.644 70.1311H73.2621V67.1311ZM73.2621 69.1311V66.1311H70.644L70.2897 68.725L73.2621 69.1311ZM56.9468 60.5395L58.283 63.2255L60.894 61.9266L59.6695 59.2799L56.9468 60.5395ZM44.7245 34.1206L47.4473 32.8609L45.9518 29.6284L43.0205 31.6515L44.7245 34.1206ZM8.46557 59.1446L6.76154 56.6756L0.368184 61.0879L8.06771 62.1181L8.46557 59.1446ZM52.3852 65.0211L55.1234 66.2467L56.7644 62.5803L52.783 62.0476L52.3852 65.0211ZM51.831 66.8349L51.4331 69.8084L54.2998 70.192L54.7879 67.3412L51.831 66.8349ZM5.75222 60.6695L5.35436 63.643L5.35436 63.643L5.75222 60.6695ZM5.11804 58.9598L3.41402 56.4908L3.41401 56.4908L5.11804 58.9598ZM43.8496 32.2293L45.5536 34.6984L47.6333 33.2631L46.5723 30.9697L43.8496 32.2293ZM32.2002 7.04856L34.923 5.78894L34.1178 4.04856H32.2002V7.04856ZM28.4105 6.97359L27.2707 9.74867L27.2707 9.74867L28.4105 6.97359ZM25.7111 5.86497L24.5714 8.64005L24.5714 8.64005L25.7111 5.86497ZM71.231 67.1311V70.1311H74.8812L74.1742 66.5501L71.231 67.1311ZM71.231 69.1311L74.1742 69.7121L74.8812 66.1311H71.231V69.1311ZM57.7827 62.3464L60.5054 61.0868L59.1986 58.2619L56.4237 59.6718L57.7827 62.3464ZM57.9957 62.8068L55.2729 64.0665L56.5326 66.7892L59.2553 65.5296L57.9957 62.8068ZM59.8109 61.9671L61.0705 64.6898L63.7932 63.4302L62.5336 60.7075L59.8109 61.9671ZM59.6557 61.6317L58.8767 58.7347L55.4378 59.6594L56.933 62.8914L59.6557 61.6317ZM102.48 22.3728L101.954 19.4192L97.8071 20.1567L99.8599 23.8349L102.48 22.3728ZM102.512 22.4309L99.8923 23.8929L101.858 27.4152L104.666 24.5191L102.512 22.4309ZM102.587 22.3538L104.741 24.442L111.206 17.7738L102.061 19.4001L102.587 22.3538ZM27.6106 1.23984C25.5671 0.400582 23.2301 1.37682 22.3909 3.42033L27.941 5.69975C27.5214 6.72151 26.3529 7.20963 25.3312 6.79L27.6106 1.23984ZM30.1274 2.27348L27.6106 1.23984L25.3312 6.79L27.848 7.82364L30.1274 2.27348ZM32.8394 2.04856H28.9877V8.04856H32.8394V2.04856ZM39.5878 2.04856H32.8394V8.04856H39.5878V2.04856ZM43.5878 6.04856C43.5878 3.83942 41.797 2.04856 39.5878 2.04856V8.04856C38.4833 8.04856 37.5878 7.15313 37.5878 6.04856H43.5878ZM39.5878 10.0486C41.797 10.0486 43.5878 8.2577 43.5878 6.04856H37.5878C37.5878 4.94399 38.4833 4.04856 39.5878 4.04856V10.0486ZM34.4039 10.0486H39.5878V4.04856H34.4039V10.0486ZM48.2427 29.8169L37.1266 5.78894L31.6811 8.30819L42.7972 32.3362L48.2427 29.8169ZM44.698 27.9987L43.8159 28.6075L47.224 33.5456L48.106 32.9369L44.698 27.9987ZM46.2663 27.3569C45.7258 27.453 45.186 27.6619 44.6979 27.9987L48.106 32.9369C47.8443 33.1175 47.5702 33.2191 47.3169 33.2642L46.2663 27.3569ZM98.8725 18.0009L46.2663 27.3569L47.3169 33.2642L99.9231 23.9082L98.8725 18.0009ZM88.7325 7.99765L96.7781 22.4163L102.018 19.4927L93.972 5.07402L88.7325 7.99765ZM88.7744 4.02627C88.0578 5.24914 88.0418 6.75993 88.7325 7.99765L93.972 5.07401C94.3173 5.69288 94.3093 6.44828 93.9511 7.05971L88.7744 4.02627ZM92.2185 2.04856C90.8011 2.05105 89.4909 2.8034 88.7744 4.02627L93.9511 7.05971C93.5928 7.67113 92.9377 8.04732 92.229 8.04856L92.2185 2.04856ZM116.918 2.00534L92.2185 2.04856L92.229 8.04856L116.929 8.00533L116.918 2.00534ZM125.919 10.5736C125.919 5.14177 121.392 1.99751 116.918 2.00534L116.929 8.00533C118.836 8.00199 119.919 9.16369 119.919 10.5736H125.919ZM116.934 19.9741C122.309 19.9741 125.919 15.0984 125.919 10.5736H119.919C119.919 12.4482 118.369 13.9741 116.934 13.9741V19.9741ZM111.121 19.9741H116.934V13.9741H111.121V19.9741ZM107.121 15.9741C107.121 18.1833 108.912 19.9741 111.121 19.9741V13.9741C112.226 13.9741 113.121 14.8696 113.121 15.9741H107.121ZM111.121 11.9741C108.912 11.9741 107.121 13.765 107.121 15.9741H113.121C113.121 17.0787 112.226 17.9741 111.121 17.9741V11.9741ZM116.934 11.9741H111.121V17.9741H116.934V11.9741ZM117.919 10.5736C117.919 10.9202 117.768 11.3181 117.488 11.6275C117.202 11.9437 116.971 11.9741 116.934 11.9741V17.9741C120.971 17.9741 123.919 14.2427 123.919 10.5736H117.919ZM116.932 10.0053C117.457 10.0044 117.712 10.1668 117.797 10.2425C117.841 10.2822 117.865 10.3187 117.881 10.3536C117.896 10.3879 117.919 10.4551 117.919 10.5736H123.919C123.919 6.51425 120.576 3.99894 116.922 4.00533L116.932 10.0053ZM93.9322 10.0456L116.932 10.0053L116.922 4.00533L93.9217 4.04559L93.9322 10.0456ZM104.101 19.1222L96.5467 5.58377L91.3072 8.5074L98.8616 22.0458L104.101 19.1222ZM104.681 16.9679L100.956 17.6303L102.007 23.5376L105.731 22.8752L104.681 16.9679ZM108.477 23.602C110.03 21.9999 109.69 19.9027 108.831 18.6796C107.996 17.4894 106.439 16.6551 104.681 16.9679L105.731 22.8752C104.959 23.0126 104.282 22.6425 103.92 22.1262C103.731 21.8567 103.552 21.446 103.559 20.9217C103.566 20.351 103.796 19.8106 104.169 19.4254L108.477 23.602ZM105.733 26.4319L108.477 23.6019L104.169 19.4254L101.425 22.2553L105.733 26.4319ZM125.412 57.3131L106.199 22.8818L100.959 25.8054L120.172 60.2367L125.412 57.3131ZM123.868 62.7551C125.797 61.6787 126.488 59.2422 125.412 57.3131L120.172 60.2367C119.634 59.2721 119.979 58.0539 120.944 57.5156L123.868 62.7551ZM118.426 61.2112C119.502 63.1404 121.938 63.8316 123.868 62.7551L120.944 57.5156C121.909 56.9774 123.127 57.323 123.665 58.2876L118.426 61.2112ZM99.5058 27.3047L118.426 61.2112L123.665 58.2876L104.745 24.3811L99.5058 27.3047ZM70.5454 62.724L104.279 27.9312L99.9717 23.7546L66.2377 58.5474L70.5454 62.724ZM65.4253 62.6399C65.9821 62.8111 66.5028 63.0286 66.9807 63.2832L69.8024 57.9882C68.9802 57.55 68.1043 57.1864 67.1883 56.9048L65.4253 62.6399ZM98.9044 21.8419L64.153 57.6841L68.4606 61.8607L103.212 26.0185L98.9044 21.8419ZM97.7763 24.2052L98.4385 25.392L103.678 22.4684L103.016 21.2816L97.7763 24.2052ZM48.131 35.0858L100.921 25.697L99.8707 19.7897L47.0804 29.1785L48.131 35.0858ZM48.0989 35.4368L49.3098 34.6012L45.9017 29.663L44.6909 30.4987L48.0989 35.4368ZM61.5326 58.5437L49.1176 31.7081L43.6721 34.2274L56.0871 61.063L61.5326 58.5437ZM62.5325 56.2621C60.9323 56.2621 59.3864 56.4959 57.9434 56.9312L59.6763 62.6755C60.5542 62.4106 61.5161 62.2621 62.5325 62.2621V56.2621ZM76.2344 66.725C75.3711 60.4056 69.1345 56.2621 62.5325 56.2621V62.2621C67.0338 62.2621 69.9433 65.0018 70.2897 67.5371L76.2344 66.725ZM73.2621 70.1311H76.0293V64.1311H73.2621V70.1311ZM76.0293 70.1311C74.9247 70.1311 74.0293 69.2356 74.0293 68.1311H80.0293C80.0293 65.9219 78.2384 64.1311 76.0293 64.1311V70.1311ZM74.0293 68.1311C74.0293 67.0265 74.9247 66.1311 76.0293 66.1311V72.1311C78.2384 72.1311 80.0293 70.3402 80.0293 68.1311H74.0293ZM76.0293 66.1311H73.2621V72.1311H76.0293V66.1311ZM62.5325 80C69.1345 80 75.3711 75.8566 76.2344 69.5371L70.2897 68.725C69.9433 71.2604 67.0338 74 62.5325 74V80ZM48.735 68.1311C48.735 75.2112 55.4914 80 62.5325 80V74C57.6469 74 54.735 70.8473 54.735 68.1311H48.735ZM55.6106 57.8536C51.7181 59.79 48.735 63.5181 48.735 68.1311H54.735C54.735 66.3061 55.9275 64.3973 58.283 63.2255L55.6106 57.8536ZM42.0018 35.3802L54.224 61.7992L59.6695 59.2799L47.4473 32.8609L42.0018 35.3802ZM10.1696 61.6137L46.4286 36.5896L43.0205 31.6515L6.76154 56.6756L10.1696 61.6137ZM52.783 62.0476L8.86342 56.1711L8.06771 62.1181L51.9873 67.9946L52.783 62.0476ZM54.7879 67.3412C54.8516 66.9696 54.9636 66.6038 55.1234 66.2467L49.6469 63.7956C49.2887 64.5959 49.0255 65.444 48.874 66.3286L54.7879 67.3412ZM5.35436 63.643L51.4331 69.8084L52.2288 63.8614L6.15007 57.696L5.35436 63.643ZM3.41401 56.4908C1.77776 57.62 1.45934 59.5376 2.00014 60.9956C2.51512 62.384 3.77977 63.4324 5.35436 63.643L6.15008 57.696C6.78007 57.7803 7.37026 58.2205 7.62561 58.909C7.75457 59.2566 7.81244 59.7157 7.67485 60.2147C7.52964 60.7414 7.20556 61.1642 6.82207 61.4289L3.41401 56.4908ZM42.1456 29.7602L3.41402 56.4908L6.82207 61.4289L45.5536 34.6984L42.1456 29.7602ZM29.4775 8.30819L41.1269 33.4889L46.5723 30.9697L34.923 5.78894L29.4775 8.30819ZM28.7904 10.0486H32.2002V4.04856H28.7904V10.0486ZM27.2707 9.74867C27.7529 9.94668 28.2691 10.0486 28.7904 10.0486V4.04856C29.051 4.04856 29.3091 4.0995 29.5502 4.19851L27.2707 9.74867ZM24.5714 8.64005L27.2707 9.74867L29.5502 4.19851L26.8508 3.08989L24.5714 8.64005ZM22.3909 3.42033C21.5516 5.46384 22.5279 7.80079 24.5714 8.64005L26.8508 3.08989C27.8725 3.50952 28.3607 4.67799 27.941 5.69976L22.3909 3.42033ZM62.5325 70.1311H71.231V64.1311H62.5325V70.1311ZM64.5325 68.1311C64.5325 69.2356 63.637 70.1311 62.5325 70.1311V64.1311C60.3233 64.1311 58.5325 65.9219 58.5325 68.1311H64.5325ZM62.5325 66.1311C63.637 66.1311 64.5325 67.0265 64.5325 68.1311H58.5325C58.5325 70.3402 60.3233 72.1311 62.5325 72.1311V66.1311ZM71.231 66.1311H62.5325V72.1311H71.231V66.1311ZM68.2878 68.5501C68.0204 69.9046 66.184 72 62.5325 72V78C68.3514 78 73.2269 74.5111 74.1742 69.7121L68.2878 68.5501ZM62.5325 72C58.4099 72 56.735 69.4295 56.735 68.1311H50.735C50.735 73.7198 56.1655 78 62.5325 78V72ZM56.735 68.1311C56.735 67.2566 57.3789 65.9166 59.1417 65.0209L56.4237 59.6718C53.1379 61.3414 50.735 64.4957 50.735 68.1311H56.735ZM55.0599 63.606L55.2729 64.0665L60.7184 61.5472L60.5054 61.0868L55.0599 63.606ZM59.2553 65.5296L61.0705 64.6898L58.5512 59.2443L56.7361 60.0841L59.2553 65.5296ZM62.5336 60.7075L62.3785 60.3721L56.933 62.8914L57.0881 63.2267L62.5336 60.7075ZM60.4347 64.5288C61.0593 64.3609 61.7607 64.2621 62.5325 64.2621V58.2621C61.2469 58.2621 60.0211 58.4269 58.8767 58.7347L60.4347 64.5288ZM62.5325 64.2621C66.184 64.2621 68.0204 66.3575 68.2878 67.7121L74.1742 66.5501C73.2269 61.751 68.3514 58.2621 62.5325 58.2621V64.2621ZM99.8599 23.8349L99.8923 23.8929L105.132 20.9689L105.099 20.9108L99.8599 23.8349ZM102.061 19.4001L101.954 19.4192L103.005 25.3265L103.112 25.3074L102.061 19.4001ZM104.666 24.5191L104.741 24.442L100.433 20.2655L100.358 20.3426L104.666 24.5191Z" fill="black" mask="url(#path-1-outside-1_0_83)"/>
</svg>
