<svg width="48" height="48" viewBox="0 0 48 48" fill="none" xmlns="http://www.w3.org/2000/svg">
<g clip-path="url(#clip0_2_1365)">
<path d="M8 40H40C42.2 40 44 38.2 44 36V18C44 15.8 42.2 14 40 14H32.66L29.196 8H18.804L15.34 14H8C5.8 14 4 15.8 4 18V36C4 38.2 5.8 40 8 40ZM8 18H15.34H17.649L18.804 16L21.113 12H26.887L29.196 16L30.351 18H32.66H40V36H8V18Z" fill="black"/>
<path d="M24 20C20.686 20 18 22.686 18 26C18 29.314 20.686 32 24 32C27.314 32 30 29.314 30 26C30 22.686 27.314 20 24 20ZM24 28C22.897 28 22 27.103 22 26C22 24.897 22.897 24 24 24C25.103 24 26 24.897 26 26C26 27.103 25.103 28 24 28Z" fill="black"/>
</g>
<defs>
<clipPath id="clip0_2_1365">
<rect width="48" height="48" fill="white"/>
</clipPath>
</defs>
</svg>
